<mxfile host="app.diagrams.net" modified="2023-01-27T22:45:44.693Z" agent="5.0 (Windows NT 10.0; Win64; x64) AppleWebKit/537.36 (KHTML, like Gecko) Chrome/109.0.0.0 Safari/537.36" etag="7YuDOJMApUh9to8M0ZQP" version="20.7.2" type="github">
  <diagram id="C5RBs43oDa-KdzZeNtuy" name="Page-1">
    <mxGraphModel dx="968" dy="915" grid="1" gridSize="10" guides="1" tooltips="1" connect="1" arrows="1" fold="1" page="1" pageScale="1" pageWidth="827" pageHeight="1169" math="0" shadow="0">
      <root>
        <mxCell id="WIyWlLk6GJQsqaUBKTNV-0" />
        <mxCell id="WIyWlLk6GJQsqaUBKTNV-1" parent="WIyWlLk6GJQsqaUBKTNV-0" />
        <mxCell id="WIyWlLk6GJQsqaUBKTNV-2" value="" style="rounded=0;html=1;jettySize=auto;orthogonalLoop=1;fontSize=11;endArrow=block;endFill=0;endSize=8;strokeWidth=1;shadow=0;labelBackgroundColor=none;edgeStyle=orthogonalEdgeStyle;" parent="WIyWlLk6GJQsqaUBKTNV-1" source="WIyWlLk6GJQsqaUBKTNV-3" target="WIyWlLk6GJQsqaUBKTNV-6" edge="1">
          <mxGeometry relative="1" as="geometry" />
        </mxCell>
        <mxCell id="WIyWlLk6GJQsqaUBKTNV-3" value="&lt;b&gt;Home Page/ LogIn&lt;/b&gt;" style="rounded=1;whiteSpace=wrap;html=1;fontSize=12;glass=0;strokeWidth=1;shadow=0;" parent="WIyWlLk6GJQsqaUBKTNV-1" vertex="1">
          <mxGeometry x="160" y="80" width="120" height="40" as="geometry" />
        </mxCell>
        <mxCell id="WIyWlLk6GJQsqaUBKTNV-4" value="Yes" style="rounded=0;html=1;jettySize=auto;orthogonalLoop=1;fontSize=11;endArrow=block;endFill=0;endSize=8;strokeWidth=1;shadow=0;labelBackgroundColor=none;edgeStyle=orthogonalEdgeStyle;" parent="WIyWlLk6GJQsqaUBKTNV-1" source="WIyWlLk6GJQsqaUBKTNV-6" edge="1">
          <mxGeometry y="20" relative="1" as="geometry">
            <mxPoint as="offset" />
            <mxPoint x="220" y="310" as="targetPoint" />
          </mxGeometry>
        </mxCell>
        <mxCell id="WIyWlLk6GJQsqaUBKTNV-5" value="No" style="edgeStyle=orthogonalEdgeStyle;rounded=0;html=1;jettySize=auto;orthogonalLoop=1;fontSize=11;endArrow=block;endFill=0;endSize=8;strokeWidth=1;shadow=0;labelBackgroundColor=none;" parent="WIyWlLk6GJQsqaUBKTNV-1" source="WIyWlLk6GJQsqaUBKTNV-6" target="WIyWlLk6GJQsqaUBKTNV-7" edge="1">
          <mxGeometry y="10" relative="1" as="geometry">
            <mxPoint as="offset" />
          </mxGeometry>
        </mxCell>
        <mxCell id="WIyWlLk6GJQsqaUBKTNV-6" value="registered user?" style="rhombus;whiteSpace=wrap;html=1;shadow=0;fontFamily=Helvetica;fontSize=12;align=center;strokeWidth=1;spacing=6;spacingTop=-4;" parent="WIyWlLk6GJQsqaUBKTNV-1" vertex="1">
          <mxGeometry x="170" y="170" width="100" height="80" as="geometry" />
        </mxCell>
        <mxCell id="WIyWlLk6GJQsqaUBKTNV-7" value="&lt;b&gt;User Registration Page&lt;/b&gt;" style="rounded=1;whiteSpace=wrap;html=1;fontSize=12;glass=0;strokeWidth=1;shadow=0;" parent="WIyWlLk6GJQsqaUBKTNV-1" vertex="1">
          <mxGeometry x="320" y="190" width="120" height="40" as="geometry" />
        </mxCell>
        <mxCell id="WIyWlLk6GJQsqaUBKTNV-11" value="&lt;b&gt;Workout Goals&lt;/b&gt;" style="rounded=1;whiteSpace=wrap;html=1;fontSize=12;glass=0;strokeWidth=1;shadow=0;verticalAlign=top;" parent="WIyWlLk6GJQsqaUBKTNV-1" vertex="1">
          <mxGeometry x="430" y="470" width="230" height="320" as="geometry" />
        </mxCell>
        <mxCell id="WIyWlLk6GJQsqaUBKTNV-12" value="&lt;div style=&quot;text-align: center;&quot;&gt;&lt;span style=&quot;background-color: initial;&quot;&gt;&lt;b&gt;User Profile Page&lt;/b&gt;&lt;/span&gt;&lt;/div&gt;&lt;ul&gt;&lt;li style=&quot;&quot;&gt;name&lt;/li&gt;&lt;li&gt;email&lt;/li&gt;&lt;li&gt;photo&lt;/li&gt;&lt;li&gt;workout goals&lt;/li&gt;&lt;li&gt;workout profile&lt;/li&gt;&lt;/ul&gt;" style="rounded=1;whiteSpace=wrap;html=1;fontSize=12;glass=0;strokeWidth=1;shadow=0;align=left;" parent="WIyWlLk6GJQsqaUBKTNV-1" vertex="1">
          <mxGeometry x="160" y="310" width="150" height="130" as="geometry" />
        </mxCell>
        <mxCell id="tj2H-7ZZWVLb4W_c2I14-1" value="&lt;p style=&quot;line-height: 120%;&quot;&gt;&lt;b&gt;Workout Profile&lt;/b&gt;&lt;/p&gt;" style="rounded=1;whiteSpace=wrap;html=1;fontSize=12;glass=0;strokeWidth=1;shadow=0;verticalAlign=top;" vertex="1" parent="WIyWlLk6GJQsqaUBKTNV-1">
          <mxGeometry x="160" y="470" width="240" height="320" as="geometry" />
        </mxCell>
        <mxCell id="tj2H-7ZZWVLb4W_c2I14-2" value="weight loss&lt;br&gt;steps taken&lt;br&gt;days in gym/time in gym" style="rounded=1;whiteSpace=wrap;html=1;" vertex="1" parent="WIyWlLk6GJQsqaUBKTNV-1">
          <mxGeometry x="440" y="520" width="210" height="60" as="geometry" />
        </mxCell>
        <mxCell id="tj2H-7ZZWVLb4W_c2I14-3" value="&lt;b&gt;Workout Metrics&lt;/b&gt;&lt;br&gt;&lt;ul&gt;&lt;li style=&quot;&quot;&gt;time in gym&lt;/li&gt;&lt;li style=&quot;&quot;&gt;equipment used&lt;/li&gt;&lt;ul&gt;&lt;li style=&quot;&quot;&gt;weights&lt;/li&gt;&lt;li style=&quot;&quot;&gt;reps&lt;/li&gt;&lt;/ul&gt;&lt;/ul&gt;" style="rounded=1;whiteSpace=wrap;html=1;align=left;" vertex="1" parent="WIyWlLk6GJQsqaUBKTNV-1">
          <mxGeometry x="170" y="660" width="220" height="110" as="geometry" />
        </mxCell>
        <mxCell id="tj2H-7ZZWVLb4W_c2I14-4" value="&lt;b&gt;Gym Metrics&lt;/b&gt;&lt;br&gt;&lt;ul&gt;&lt;li style=&quot;&quot;&gt;graph of days/time in gym&lt;/li&gt;&lt;li style=&quot;&quot;&gt;avg visit duration&lt;/li&gt;&lt;/ul&gt;" style="rounded=1;whiteSpace=wrap;html=1;align=left;" vertex="1" parent="WIyWlLk6GJQsqaUBKTNV-1">
          <mxGeometry x="170" y="570" width="220" height="80" as="geometry" />
        </mxCell>
        <mxCell id="tj2H-7ZZWVLb4W_c2I14-5" value="&lt;div style=&quot;&quot;&gt;&lt;b&gt;Gym&lt;/b&gt;&lt;/div&gt;" style="rounded=1;whiteSpace=wrap;html=1;align=center;verticalAlign=top;" vertex="1" parent="WIyWlLk6GJQsqaUBKTNV-1">
          <mxGeometry x="495" y="50" width="415" height="350" as="geometry" />
        </mxCell>
        <mxCell id="tj2H-7ZZWVLb4W_c2I14-6" value="Upcoming Classes Attending" style="rounded=1;whiteSpace=wrap;html=1;" vertex="1" parent="WIyWlLk6GJQsqaUBKTNV-1">
          <mxGeometry x="170" y="520" width="220" height="40" as="geometry" />
        </mxCell>
        <mxCell id="tj2H-7ZZWVLb4W_c2I14-8" value="" style="endArrow=classic;html=1;rounded=0;" edge="1" parent="WIyWlLk6GJQsqaUBKTNV-1" source="WIyWlLk6GJQsqaUBKTNV-12" target="tj2H-7ZZWVLb4W_c2I14-1">
          <mxGeometry width="50" height="50" relative="1" as="geometry">
            <mxPoint x="440" y="430" as="sourcePoint" />
            <mxPoint x="490" y="380" as="targetPoint" />
          </mxGeometry>
        </mxCell>
        <mxCell id="tj2H-7ZZWVLb4W_c2I14-9" value="" style="endArrow=classic;html=1;rounded=0;entryX=0.584;entryY=-0.002;entryDx=0;entryDy=0;entryPerimeter=0;" edge="1" parent="WIyWlLk6GJQsqaUBKTNV-1" source="WIyWlLk6GJQsqaUBKTNV-12" target="WIyWlLk6GJQsqaUBKTNV-11">
          <mxGeometry width="50" height="50" relative="1" as="geometry">
            <mxPoint x="440" y="430" as="sourcePoint" />
            <mxPoint x="490" y="380" as="targetPoint" />
          </mxGeometry>
        </mxCell>
        <mxCell id="tj2H-7ZZWVLb4W_c2I14-10" value="&lt;span style=&quot;background-color: initial;&quot;&gt;&lt;b&gt;class schedule&lt;/b&gt;&lt;br&gt;&lt;ul&gt;&lt;li&gt;&lt;span style=&quot;background-color: initial;&quot;&gt;add classes to profile&lt;/span&gt;&lt;/li&gt;&lt;/ul&gt;&lt;/span&gt;" style="rounded=1;whiteSpace=wrap;html=1;align=left;" vertex="1" parent="WIyWlLk6GJQsqaUBKTNV-1">
          <mxGeometry x="510" y="150" width="360" height="60" as="geometry" />
        </mxCell>
        <mxCell id="tj2H-7ZZWVLb4W_c2I14-11" value="&lt;span style=&quot;background-color: initial;&quot;&gt;&lt;b&gt;workout videos/ photos&lt;/b&gt;&lt;/span&gt;&lt;br&gt;&lt;ul style=&quot;border-color: var(--border-color);&quot;&gt;&lt;li&gt;&lt;span style=&quot;background-color: initial;&quot;&gt;icon to play relevant video when scanning equipment&lt;/span&gt;&lt;br&gt;&lt;/li&gt;&lt;/ul&gt;" style="rounded=1;whiteSpace=wrap;html=1;align=left;" vertex="1" parent="WIyWlLk6GJQsqaUBKTNV-1">
          <mxGeometry x="510" y="220" width="360" height="70" as="geometry" />
        </mxCell>
        <mxCell id="tj2H-7ZZWVLb4W_c2I14-14" value="&lt;b&gt;scan/ log equipment&lt;/b&gt;&lt;br&gt;&lt;ul&gt;&lt;li&gt;workout / machine&lt;/li&gt;&lt;li&gt;date / time&lt;/li&gt;&lt;li&gt;# reps / weight&lt;/li&gt;&lt;/ul&gt;" style="rounded=1;whiteSpace=wrap;html=1;align=left;" vertex="1" parent="WIyWlLk6GJQsqaUBKTNV-1">
          <mxGeometry x="510" y="300" width="360" height="80" as="geometry" />
        </mxCell>
        <mxCell id="tj2H-7ZZWVLb4W_c2I14-15" value="check-in / checkout" style="rounded=1;whiteSpace=wrap;html=1;" vertex="1" parent="WIyWlLk6GJQsqaUBKTNV-1">
          <mxGeometry x="510" y="80" width="355" height="60" as="geometry" />
        </mxCell>
        <mxCell id="tj2H-7ZZWVLb4W_c2I14-16" value="" style="endArrow=classic;html=1;rounded=0;entryX=-0.008;entryY=0.688;entryDx=0;entryDy=0;entryPerimeter=0;" edge="1" parent="WIyWlLk6GJQsqaUBKTNV-1" source="WIyWlLk6GJQsqaUBKTNV-12" target="tj2H-7ZZWVLb4W_c2I14-5">
          <mxGeometry width="50" height="50" relative="1" as="geometry">
            <mxPoint x="540" y="280" as="sourcePoint" />
            <mxPoint x="590" y="230" as="targetPoint" />
          </mxGeometry>
        </mxCell>
        <mxCell id="tj2H-7ZZWVLb4W_c2I14-17" value="" style="endArrow=classic;html=1;rounded=0;exitX=1;exitY=0.5;exitDx=0;exitDy=0;entryX=1;entryY=0.5;entryDx=0;entryDy=0;" edge="1" parent="WIyWlLk6GJQsqaUBKTNV-1" source="tj2H-7ZZWVLb4W_c2I14-14" target="tj2H-7ZZWVLb4W_c2I14-11">
          <mxGeometry width="50" height="50" relative="1" as="geometry">
            <mxPoint x="570" y="420" as="sourcePoint" />
            <mxPoint x="620" y="370" as="targetPoint" />
            <Array as="points">
              <mxPoint x="890" y="340" />
              <mxPoint x="890" y="290" />
              <mxPoint x="890" y="260" />
            </Array>
          </mxGeometry>
        </mxCell>
      </root>
    </mxGraphModel>
  </diagram>
</mxfile>
